<svg width="192" height="192" viewBox="0 0 512 512" fill="none" xmlns="http://www.w3.org/2000/svg">
<rect width="512" height="512" rx="96" fill="#6750A4"/>
<path d="M297.28 202.6C297.28 193.333 300.907 185.333 307.76 178.6C315.013 171.467 323.84 167.933 334.24 168C344.64 167.933 353.467 171.467 360.72 178.6C367.973 185.333 371.68 193.333 371.68 202.6C371.68 207.267 370.827 211.8 369.12 216.2C367.413 220.6 365.013 224.733 361.92 228.6C358.827 232.467 355.253 235.8 351.2 238.6C347.147 241.4 342.72 243.6 337.92 245.2L330.4 247.6C320 250.8 310.827 255.467 302.88 261.6C294.933 267.733 291 275.467 291 284.8C291 292.867 293.4 300.067 298.2 306.4C303 312.733 309.12 317.333 316.56 320.2C324 323.067 332.32 324.533 341.52 324.6C353.52 324.6 363.653 321.467 371.92 315.2C380.187 308.933 385.44 300.6 387.68 290.2L348.64 283.6C348.24 285.8 347.467 287.667 346.32 289.2C345.173 290.733 343.653 291.867 341.76 292.6C339.867 293.333 337.76 293.667 335.44 293.6C331.04 293.6 327.333 292.467 324.32 290.2C321.307 287.933 319.84 285.067 319.92 281.6C319.92 278.467 320.667 275.667 322.16 273.2C323.653 270.733 325.68 268.667 328.24 267C330.8 265.333 333.627 263.867 336.72 262.6C339.813 261.333 342.88 260.067 345.92 258.8L352.48 256.4C362.88 252.933 371.813 248.133 379.28 242C386.747 235.867 390.48 227.8 390.48 217.8C390.48 206.533 387.147 196.8 380.48 188.6C373.813 180.4 364.64 176.267 352.96 176.2C342.053 176.267 332.587 179.6 324.56 186.2C316.533 192.8 311.28 201.2 308.8 211.4L348.64 218.2C348.827 214.6 349.493 211.733 350.64 209.6C351.787 207.467 353.413 205.8 355.52 204.6C357.627 203.4 359.947 202.8 362.48 202.8C364.573 202.8 366.427 203.333 368.04 204.4C369.653 205.467 370.48 206.933 370.56 208.8C370.56 211 369.947 212.867 368.72 214.4C367.493 215.933 365.867 217.2 363.84 218.2C361.813 219.2 359.493 219.933 356.88 220.4L297.28 202.6ZM136.16 352V160H181.28V352H136.16Z" fill="white"/>
</svg>
